<svg width="440" height="365" viewBox="0 0 440 365" fill="none" xmlns="http://www.w3.org/2000/svg">
<path d="M34.5 71.5L3 0C207.8 66.8 379.333 27.8333 439.5 0C319.5 91.2 119.5 85.6667 34.5 71.5Z" fill="#00AEF0"/>
<path d="M405.464 109.581L437 163.5C231.965 113.125 60.2356 142.511 0 163.5C120.137 94.7251 320.367 98.8979 405.464 109.581Z" fill="#00AEF0"/>
<path d="M114.598 337.377L49 348.657C127.119 223.954 109.482 107.26 90.898 64.5002C159.194 154.387 135.155 283.871 114.598 337.377Z" fill="#00AEF0"/>
<path d="M298.932 332.377L364.529 343.657C286.41 218.954 304.048 102.26 322.631 59.5002C254.335 149.387 278.375 278.871 298.932 332.377Z" fill="#00AEF0"/>
<path d="M25 365C67.25 354.435 204.4 339.645 415 365H25Z" fill="#00AEF0"/>
</svg>
